<?xml version="1.0" encoding="utf-8" ?>
<svg xmlns="http://www.w3.org/2000/svg" xmlns:ev="http://www.w3.org/2001/xml-events" xmlns:xlink="http://www.w3.org/1999/xlink" baseProfile="full" height="128px" version="1.1" viewBox="0 0 128 128" width="128px">
  <defs/>
  <g id="x794800_r121_g72_b0_a1.0">
    <path d="M 28,35 31,35 31,32 34,32 34,29 40,29 40,26 43,26 43,23 52,23 52,20 56,20 75,20 75,23 84,23 84,26 87,26 87,29 90,29 93,29 93,32 96,32 96,35 99,35 99,41 102,41 102,44 105,44 105,53 108,53 108,67 108,77 105,77 105,86 102,86 102,89 99,89 99,95 96,95 96,98 93,98 93,100 93,101 87,101 87,104 84,104 84,107 81,107 75,107 75,110 70,110 52,110 52,107 43,107 43,104 40,104 40,101 34,101 34,98 31,98 31,95 28,95 28,89 25,89 25,86 22,86 22,77 19,77 19,53 22,53 22,44 25,44 25,41 28,41 z M 34,35 34,38 33,38 31,38 31,44 28,44 28,47 25,47 25,49 25,56 22,56 22,66 22,67 22,74 25,74 25,79 25,83 27,83 28,83 28,86 30,86 31,86 31,92 34,92 34,95 37,95 37,98 43,98 43,101 44,101 46,101 46,104 47,104 55,104 55,107 63,107 72,107 72,104 81,104 81,101 84,101 84,98 87,98 90,98 90,95 93,95 93,92 96,92 96,86 99,86 99,83 102,83 102,74 104,74 105,74 105,56 102,56 102,47 99,47 99,44 96,44 96,38 93,38 93,35 90,35 90,32 84,32 84,29 81,29 81,26 72,26 72,24 72,23 55,23 55,26 46,26 46,29 43,29 43,32 37,32 37,35 36,35 z" fill="#794800" fill-opacity="1.0" id="x794800_r121_g72_b0_a1.0_shape1"/>
    <path d="M 49,83 43,83 43,80 40,80 40,68 43,68 43,65 46,65 46,62 49,62 49,53 52,53 52,50 61,50 61,53 55,53 55,59 58,59 58,62 58,65 49,65 49,68 46,68 46,77 46,80 49,80 z" fill="#794800" fill-opacity="1.0" id="x794800_r121_g72_b0_a1.0_shape2"/>
    <path d="M 61,56 61,53 78,53 78,56 z" fill="#794800" fill-opacity="1.0" id="x794800_r121_g72_b0_a1.0_shape3"/>
    <path d="M 81,71 78,71 78,56 81,56 z" fill="#794800" fill-opacity="1.0" id="x794800_r121_g72_b0_a1.0_shape4"/>
    <path d="M 78,74 69,74 69,71 78,71 z" fill="#794800" fill-opacity="1.0" id="x794800_r121_g72_b0_a1.0_shape5"/>
    <path d="M 69,83 66,83 66,81 66,74 69,74 69,77 z" fill="#794800" fill-opacity="1.0" id="x794800_r121_g72_b0_a1.0_shape6"/>
    <path d="M 61,83 55,83 55,80 61,80 z" fill="#794800" fill-opacity="1.0" id="x794800_r121_g72_b0_a1.0_shape7"/>
  </g>
  <g id="xffbb00_r255_g187_b0_a1.0">
    <path d="M 40,74 37,74 37,77 31,77 31,71 28,71 28,68 31,68 31,62 34,62 34,59 40,59 40,53 43,53 43,50 46,50 46,47 52,47 52,44 58,44 58,41 61,41 61,38 64,38 64,35 66,35 66,32 75,32 75,35 81,35 81,41 78,41 78,44 75,44 75,47 72,47 72,50 66,50 66,53 61,53 61,50 52,50 52,53 49,53 49,62 46,62 46,65 43,65 43,68 40,68 z" fill="#ffbb00" fill-opacity="1.0" id="xffbb00_r255_g187_b0_a1.0_shape1"/>
    <path d="M 90,83 87,83 87,86 84,86 84,89 81,89 81,90 81,92 78,92 78,95 75,95 75,96 75,98 69,98 69,95 69,92 72,92 72,89 75,89 75,86 76,86 78,86 78,83 79,83 81,83 81,80 84,80 84,77 87,77 87,74 90,74 90,71 93,71 93,68 99,68 99,74 96,74 96,77 93,77 93,80 90,80 z" fill="#ffbb00" fill-opacity="1.0" id="xffbb00_r255_g187_b0_a1.0_shape2"/>
    <path d="M 55,98 49,98 49,95 46,95 46,92 40,92 40,89 46,89 46,86 49,86 49,83 52,83 64,83 66,83 66,86 65,86 64,86 64,89 62,89 61,89 61,92 58,92 58,95 56,95 55,95 z" fill="#ffbb00" fill-opacity="1.0" id="xffbb00_r255_g187_b0_a1.0_shape3"/>
    <path d="M 81,53 84,53 84,50 87,50 87,47 93,47 93,50 96,50 96,56 93,56 93,59 90,59 90,62 87,62 87,65 86,65 81,65 z" fill="#ffbb00" fill-opacity="1.0" id="xffbb00_r255_g187_b0_a1.0_shape4"/>
    <path d="M 75,77 72,77 72,80 69,80 69,74 73,74 75,74 z" fill="#ffbb00" fill-opacity="1.0" id="xffbb00_r255_g187_b0_a1.0_shape5"/>
    <path d="M 69,101 66,101 66,98 69,98 z" fill="#ffbb00" fill-opacity="1.0" id="xffbb00_r255_g187_b0_a1.0_shape6"/>
  </g>
  <g id="xf5ea81_r245_g234_b129_a1.0">
    <path d="M 58,101 58,98 55,98 55,95 58,95 58,92 61,92 61,89 64,89 64,86 66,86 66,83 67,83 69,83 69,80 70,80 72,80 72,77 75,77 75,74 78,74 78,71 81,71 81,70 81,65 87,65 87,62 90,62 90,59 93,59 93,56 96,56 96,59 99,59 99,68 93,68 93,71 90,71 90,74 87,74 87,77 84,77 84,80 81,80 81,83 78,83 78,86 75,86 75,89 72,89 72,92 69,92 69,98 66,98 66,101 z" fill="#f5ea81" fill-opacity="1.0" id="xf5ea81_r245_g234_b129_a1.0_shape1"/>
    <path d="M 66,32 66,35 64,35 64,38 61,38 61,41 58,41 58,44 52,44 52,47 46,47 46,50 43,50 43,53 40,53 40,59 34,59 34,62 31,62 31,68 29,68 28,68 28,59 31,59 31,50 34,50 34,47 37,47 37,41 43,41 43,38 46,38 46,35 55,35 55,32 z" fill="#f5ea81" fill-opacity="1.0" id="xf5ea81_r245_g234_b129_a1.0_shape2"/>
    <path d="M 72,47 75,47 75,44 78,44 78,41 81,41 81,38 87,38 87,41 90,41 90,47 87,47 87,50 84,50 84,53 81,53 81,56 78,56 78,53 66,53 66,50 72,50 z" fill="#f5ea81" fill-opacity="1.0" id="xf5ea81_r245_g234_b129_a1.0_shape3"/>
    <path d="M 43,80 43,83 49,83 49,86 46,86 46,89 37,89 37,83 34,83 34,80 31,80 31,77 37,77 37,74 40,74 40,80 z" fill="#f5ea81" fill-opacity="1.0" id="xf5ea81_r245_g234_b129_a1.0_shape4"/>
    <path d="M 90,89 87,89 87,92 81,92 81,89 84,89 84,86 87,86 87,85 87,83 90,83 90,84 z" fill="#f5ea81" fill-opacity="1.0" id="xf5ea81_r245_g234_b129_a1.0_shape5"/>
    <path d="M 93,80 93,77 96,77 96,80 z" fill="#f5ea81" fill-opacity="1.0" id="xf5ea81_r245_g234_b129_a1.0_shape6"/>
    <path d="M 93,83 90,83 90,80 93,80 z" fill="#f5ea81" fill-opacity="1.0" id="xf5ea81_r245_g234_b129_a1.0_shape7"/>
    <path d="M 78,92 81,92 81,95 78,95 z" fill="#f5ea81" fill-opacity="1.0" id="xf5ea81_r245_g234_b129_a1.0_shape8"/>
    <path d="M 78,98 75,98 75,95 78,95 z" fill="#f5ea81" fill-opacity="1.0" id="xf5ea81_r245_g234_b129_a1.0_shape9"/>
  </g>
  <g id="xfdd001_r253_g208_b1_a1.0">
    <path d="M 25,74 22,74 22,56 25,56 25,47 28,47 28,45 28,44 31,44 31,42 31,38 32,38 34,38 34,35 37,35 37,32 43,32 43,31 43,29 46,29 46,26 53,26 55,26 55,23 59,23 72,23 72,26 81,26 81,29 84,29 84,32 90,32 90,35 93,35 93,38 96,38 96,44 99,44 99,47 102,47 102,56 105,56 105,74 102,74 102,59 99,59 99,50 96,50 96,47 93,47 93,41 90,41 90,38 87,38 87,35 81,35 81,32 76,32 75,32 75,29 63,29 55,29 55,32 46,32 46,35 43,35 43,38 37,38 37,41 34,41 34,47 31,47 31,50 28,50 28,59 25,59 25,71 28,71 28,80 31,80 31,83 34,83 34,89 37,89 37,92 40,92 40,95 46,95 46,98 49,98 49,101 58,101 58,104 69,104 69,101 78,101 78,98 81,98 81,95 87,95 87,92 90,92 90,89 93,89 93,83 95,83 96,83 96,80 99,80 99,74 102,74 102,83 99,83 99,86 96,86 96,92 93,92 93,95 90,95 90,98 84,98 84,101 81,101 81,104 72,104 72,107 55,107 55,104 46,104 46,101 43,101 43,98 37,98 37,95 34,95 34,92 31,92 31,86 28,86 28,83 25,83 z" fill="#fdd001" fill-opacity="1.0" id="xfdd001_r253_g208_b1_a1.0_shape1"/>
    <path d="M 58,71 55,71 55,77 52,77 52,80 55,80 55,83 49,83 49,80 46,80 46,68 49,68 49,65 58,65 58,68 61,68 61,74 66,74 66,83 64,83 64,80 58,80 z M 55,71 55,68 52,68 52,71 z" fill="#fdd001" fill-opacity="1.0" id="xfdd001_r253_g208_b1_a1.0_shape2"/>
    <path d="M 66,65 64,65 64,62 66,62 z" fill="#fdd001" fill-opacity="1.0" id="xfdd001_r253_g208_b1_a1.0_shape3"/>
  </g>
  <g id="xffde0b_r255_g222_b11_a1.0">
    <path d="M 61,68 58,68 58,62 61,62 61,56 72,56 72,62 75,62 75,63 75,65 78,65 78,69 78,71 69,71 69,74 61,74 z M 64,59 64,65 66,65 66,62 69,62 69,60 69,59 z" fill="#ffde0b" fill-opacity="1.0" id="xffde0b_r255_g222_b11_a1.0_shape1"/>
  </g>
  <g id="xf57802_r245_g120_b2_a1.0">
    <path d="M 102,59 102,74 99,74 99,59 z" fill="#f57802" fill-opacity="1.0" id="xf57802_r245_g120_b2_a1.0_shape1"/>
    <path d="M 69,104 58,104 58,101 69,101 z" fill="#f57802" fill-opacity="1.0" id="xf57802_r245_g120_b2_a1.0_shape2"/>
    <path d="M 49,101 49,98 58,98 58,101 z" fill="#f57802" fill-opacity="1.0" id="xf57802_r245_g120_b2_a1.0_shape3"/>
    <path d="M 78,98 78,101 69,101 69,98 z" fill="#f57802" fill-opacity="1.0" id="xf57802_r245_g120_b2_a1.0_shape4"/>
    <path d="M 99,80 96,80 96,74 99,74 z" fill="#f57802" fill-opacity="1.0" id="xf57802_r245_g120_b2_a1.0_shape5"/>
    <path d="M 93,89 90,89 90,83 93,83 z" fill="#f57802" fill-opacity="1.0" id="xf57802_r245_g120_b2_a1.0_shape6"/>
    <path d="M 81,92 87,92 87,95 81,95 z" fill="#f57802" fill-opacity="1.0" id="xf57802_r245_g120_b2_a1.0_shape7"/>
    <path d="M 93,83 93,80 96,80 96,83 z" fill="#f57802" fill-opacity="1.0" id="xf57802_r245_g120_b2_a1.0_shape8"/>
    <path d="M 87,90 87,89 88,89 89,89 90,89 90,90 90,91 90,92 89,92 88,92 87,92 87,91 z" fill="#f57802" fill-opacity="1.0" id="xf57802_r245_g120_b2_a1.0_shape9"/>
    <path d="M 78,95 81,95 81,98 78,98 z" fill="#f57802" fill-opacity="1.0" id="xf57802_r245_g120_b2_a1.0_shape10"/>
  </g>
  <g id="xffffff_r255_g255_b255_a1.0">
    <path d="M 72,29 72,32 60,32 55,32 55,29 56,29 z" fill="#ffffff" fill-opacity="1.0" id="xffffff_r255_g255_b255_a1.0_shape1"/>
    <path d="M 25,59 28,59 28,71 25,71 z" fill="#ffffff" fill-opacity="1.0" id="xffffff_r255_g255_b255_a1.0_shape2"/>
    <path d="M 55,32 55,35 50,35 46,35 46,32 52,32 z" fill="#ffffff" fill-opacity="1.0" id="xffffff_r255_g255_b255_a1.0_shape3"/>
    <path d="M 28,59 28,50 31,50 31,59 z" fill="#ffffff" fill-opacity="1.0" id="xffffff_r255_g255_b255_a1.0_shape4"/>
    <path d="M 37,41 37,38 43,38 43,41 z" fill="#ffffff" fill-opacity="1.0" id="xffffff_r255_g255_b255_a1.0_shape5"/>
    <path d="M 34,41 37,41 37,47 34,47 z" fill="#ffffff" fill-opacity="1.0" id="xffffff_r255_g255_b255_a1.0_shape6"/>
    <path d="M 44,38 43,38 43,37 43,36 43,35 44,35 45,35 46,35 46,36 46,37 46,38 45,38 z" fill="#ffffff" fill-opacity="1.0" id="xffffff_r255_g255_b255_a1.0_shape7"/>
    <path d="M 34,49 34,50 33,50 32,50 31,50 31,49 31,48 31,47 32,47 33,47 34,47 34,48 z" fill="#ffffff" fill-opacity="1.0" id="xffffff_r255_g255_b255_a1.0_shape8"/>
  </g>
  <g id="xffb720_r255_g183_b32_a1.0">
    <path d="M 75,65 75,62 72,62 72,56 78,56 78,59 78,65 z" fill="#ffb720" fill-opacity="1.0" id="xffb720_r255_g183_b32_a1.0_shape1"/>
    <path d="M 52,77 55,77 55,71 58,71 58,80 52,80 z" fill="#ffb720" fill-opacity="1.0" id="xffb720_r255_g183_b32_a1.0_shape2"/>
    <path d="M 61,62 58,62 58,59 55,59 55,56 61,56 z" fill="#ffb720" fill-opacity="1.0" id="xffb720_r255_g183_b32_a1.0_shape3"/>
    <path d="M 52,69 52,68 53,68 54,68 55,68 55,69 55,70 55,71 54,71 53,71 52,71 52,70 z" fill="#ffb720" fill-opacity="1.0" id="xffb720_r255_g183_b32_a1.0_shape4"/>
    <path d="M 61,80 64,80 64,83 61,83 z" fill="#ffb720" fill-opacity="1.0" id="xffb720_r255_g183_b32_a1.0_shape5"/>
  </g>
  <g id="xddb901_r221_g185_b1_a1.0">
    <path d="M 96,59 96,50 99,50 99,59 z" fill="#ddb901" fill-opacity="1.0" id="xddb901_r221_g185_b1_a1.0_shape1"/>
    <path d="M 81,32 81,35 75,35 75,32 z" fill="#ddb901" fill-opacity="1.0" id="xddb901_r221_g185_b1_a1.0_shape2"/>
    <path d="M 81,38 81,35 87,35 87,38 z" fill="#ddb901" fill-opacity="1.0" id="xddb901_r221_g185_b1_a1.0_shape3"/>
    <path d="M 90,41 93,41 93,47 90,47 z" fill="#ddb901" fill-opacity="1.0" id="xddb901_r221_g185_b1_a1.0_shape4"/>
    <path d="M 64,59 69,59 69,62 64,62 z" fill="#ddb901" fill-opacity="1.0" id="xddb901_r221_g185_b1_a1.0_shape5"/>
    <path d="M 72,32 72,29 75,29 75,32 z" fill="#ddb901" fill-opacity="1.0" id="xddb901_r221_g185_b1_a1.0_shape6"/>
    <path d="M 90,41 87,41 87,38 90,38 z" fill="#ddb901" fill-opacity="1.0" id="xddb901_r221_g185_b1_a1.0_shape7"/>
    <path d="M 93,48 93,47 94,47 95,47 96,47 96,48 96,49 96,50 95,50 94,50 93,50 93,49 z" fill="#ddb901" fill-opacity="1.0" id="xddb901_r221_g185_b1_a1.0_shape8"/>
  </g>
  <g id="xe1ba00_r225_g186_b0_a1.0">
    <path d="M 28,71 31,71 31,80 28,80 z" fill="#e1ba00" fill-opacity="1.0" id="xe1ba00_r225_g186_b0_a1.0_shape1"/>
    <path d="M 37,89 34,89 34,83 37,83 z" fill="#e1ba00" fill-opacity="1.0" id="xe1ba00_r225_g186_b0_a1.0_shape2"/>
    <path d="M 46,95 40,95 40,92 46,92 z" fill="#e1ba00" fill-opacity="1.0" id="xe1ba00_r225_g186_b0_a1.0_shape3"/>
    <path d="M 34,82 34,83 33,83 32,83 31,83 31,82 31,81 31,80 32,80 33,80 34,80 34,81 z" fill="#e1ba00" fill-opacity="1.0" id="xe1ba00_r225_g186_b0_a1.0_shape4"/>
    <path d="M 37,92 37,89 40,89 40,92 z" fill="#e1ba00" fill-opacity="1.0" id="xe1ba00_r225_g186_b0_a1.0_shape5"/>
    <path d="M 46,95 49,95 49,98 46,98 z" fill="#e1ba00" fill-opacity="1.0" id="xe1ba00_r225_g186_b0_a1.0_shape6"/>
  </g>
  <g id="xfbf236_r251_g242_b54_a1.0">
    <path d="M 55,53 61,53 61,56 55,56 z" fill="#fbf236" fill-opacity="1.0" id="xfbf236_r251_g242_b54_a1.0_shape1"/>
  </g>
</svg>
